# xmcd CD database file
#
# Track frame offsets:
#	150
#	13200
#	30350
#	44860
#	58731
#	74210
#	91148
#	104022
#	115268
#	130730
#	147410
#	161511
#	174224
#	188503
#	204341
#	221382
#	236785
#	249596
#	254422
#	271788
#	285785
#	301861
#	319417
#
# Disc length: 4434 seconds
#
# Revision: 0
# Processed by: cddbd v1.5.2PL0 Copyright (c) Steve Scherf et al.
# Submitted via: CDex 1.70beta2
#
DISCID=4f115017
DTITLE=George R. R. Martin - A Storm of Swords - Disc 11
DYEAR=2000
DGENRE=Audiobook
TTITLE0=d12t01
TTITLE1=d12t02
TTITLE2=d12t03
TTITLE3=d12t04
TTITLE4=d12t05
TTITLE5=d12t06
TTITLE6=d12t07
TTITLE7=d12t08
TTITLE8=d12t09
TTITLE9=d12t10
TTITLE10=d12t11
TTITLE11=d12t12
TTITLE12=d12t13
TTITLE13=d12t14
TTITLE14=d12t15
TTITLE15=d12t16
TTITLE16=d12t17
TTITLE17=d12t18
TTITLE18=d12t19
TTITLE19=d12t20
TTITLE20=d12t21
TTITLE21=d12t22
TTITLE22=d12t23
EXTD=YEAR: 2000
EXTT0=
EXTT1=
EXTT2=
EXTT3=
EXTT4=
EXTT5=
EXTT6=
EXTT7=
EXTT8=
EXTT9=
EXTT10=
EXTT11=
EXTT12=
EXTT13=
EXTT14=
EXTT15=
EXTT16=
EXTT17=
EXTT18=
EXTT19=
EXTT20=
EXTT21=
EXTT22=
PLAYORDER=
